<svg width="118" height="112" viewBox="0 0 118 112" fill="none" xmlns="http://www.w3.org/2000/svg">
<path d="M49.5034 60.9075L49.5291 61.1552C49.5364 61.2349 49.5507 61.343 49.5579 61.4545L49.5864 61.8473C49.5985 61.9979 49.601 62.1474 49.61 62.3222C49.6171 62.4942 49.6283 62.6875 49.6275 62.8745L49.6342 63.4924C49.6335 63.7069 49.6241 63.9199 49.6191 64.1534C49.5953 65.1611 49.501 66.1659 49.3368 67.1603C49.2534 67.6907 49.139 68.2109 49.0088 68.7424C48.8708 69.2606 48.716 69.7885 48.5285 70.2943C48.3426 70.7976 48.1269 71.2893 47.8824 71.7668C47.6401 72.2349 47.3651 72.6852 47.0594 73.1146C46.4515 73.9653 45.7201 74.7059 44.8672 75.3053C44.4432 75.6094 43.9767 75.8569 43.5103 76.1177C43.04 76.3718 42.561 76.6237 42.068 76.8602C41.0691 77.3464 40.0453 77.7798 39.001 78.1588C37.9453 78.5454 36.8559 78.8737 35.7553 79.1479C35.2046 79.2826 34.6507 79.4037 34.0941 79.5111C33.54 79.6153 32.9835 79.7059 32.425 79.7829C31.3122 79.9322 30.2065 80.0245 29.1261 80.0568C28.0827 80.0897 27.0382 80.0712 25.9966 80.0012C24.0034 79.8715 22.2254 79.5609 20.9257 79.2481L20.4621 79.1324L20.0478 79.021L19.3816 78.8233L18.9582 78.6828L18.8097 78.629L18.8373 78.4735L18.9274 78.0366L19.0893 77.3608L19.1999 76.9463L19.3316 76.4869C19.7105 75.205 20.3304 73.5098 21.2148 71.7188C21.675 70.7818 22.1811 69.868 22.7313 68.9808C23.2994 68.0613 23.9322 67.1498 24.6179 66.2608C24.9639 65.8157 25.3206 65.379 25.6878 64.9513C26.0585 64.5246 26.44 64.1038 26.833 63.6942C27.6207 62.8781 28.4497 62.0988 29.3124 61.3779C30.1628 60.6629 31.05 59.9931 31.9706 59.3711C32.4218 59.0624 32.8794 58.7733 33.3347 58.4933C33.7937 58.2198 34.2414 57.9395 34.7167 57.7244C35.6624 57.2855 36.6694 57.0223 37.71 56.9212C38.2347 56.8712 38.7622 56.8583 39.2887 56.8824C39.8245 56.9094 40.3582 56.9684 40.887 57.0591C41.4188 57.1496 41.9535 57.2795 42.4711 57.4191C42.9966 57.572 43.5042 57.7331 44.0053 57.9261C44.9486 58.2811 45.8659 58.7018 46.7505 59.1851C46.9551 59.2972 47.1443 59.3958 47.3305 59.5024L47.8623 59.8172C48.0245 59.9102 48.1865 60.0164 48.3318 60.1085C48.4789 60.2036 48.6069 60.2807 48.7313 60.3664L49.0572 60.5875C49.1502 60.6495 49.2366 60.7159 49.302 60.7621C49.4347 60.8576 49.5034 60.9075 49.5034 60.9075Z" fill="#FFB636"/>
<path d="M38.3932 40.5223L26.5701 47.3483C25.7529 47.8201 25.9141 49.0445 26.8255 49.2887L34.6625 51.3886C34.9338 51.4613 35.1652 51.6388 35.3056 51.8821L39.0307 58.3341L51.7859 43.7897L39.1969 40.4165C39.0625 40.3805 38.9224 40.3713 38.7845 40.3894C38.6466 40.4076 38.5136 40.4527 38.3932 40.5223Z" fill="#FF473E"/>
<path d="M48.1026 71.9498L51.8277 78.4018C51.9682 78.6451 52.0062 78.9342 51.9335 79.2056L49.8336 87.0425C49.5894 87.9539 50.5691 88.7057 51.3863 88.2339L63.2094 81.4078C63.4526 81.2674 63.6301 81.036 63.7028 80.7647L67.076 68.1757L48.1026 71.9498Z" fill="#FF473E"/>
<path d="M98.2392 33.7392L98.2271 33.8238C98.2187 33.8793 98.2083 33.9655 98.1893 34.0703C98.1513 34.2796 98.1044 34.6072 98.0202 34.9942C97.8676 35.796 97.6102 36.9133 97.226 38.2375C96.8424 39.5627 96.3315 41.0938 95.6754 42.7287C95.5153 43.1442 95.3369 43.5503 95.1562 43.9735C94.9788 44.4024 94.7795 44.8144 94.5819 45.2492C94.1835 46.1137 93.7422 46.9838 93.266 47.8644C92.276 49.6915 91.1686 51.4525 89.9508 53.1363C88.6954 54.8702 87.2929 56.5623 85.7529 58.1584C84.2117 59.7525 82.5399 61.2623 80.7531 62.6445C78.9678 64.0287 77.0688 65.2875 75.0921 66.4114C73.1154 67.5355 71.0625 68.5274 68.9608 69.3637C68.4352 69.5725 67.9086 69.7753 67.3758 69.9615C66.8465 70.154 66.3112 70.3303 65.7782 70.5042C64.7091 70.8465 63.6307 71.1459 62.5518 71.409C60.428 71.926 58.2715 72.2979 56.0972 72.5222C54.0315 72.7335 51.9547 72.8149 49.8789 72.7659C48.8797 72.7406 47.9091 72.6939 46.9624 72.6085L46.2643 72.55C46.0335 72.5287 45.8013 72.4999 45.5749 72.4757L44.9036 72.4013L44.2422 72.3113C42.505 72.0736 40.931 71.7635 39.5987 71.4455C38.2675 71.1293 37.1757 70.8018 36.4117 70.5443C36.0372 70.4287 35.7317 70.3079 35.5331 70.2394C35.4336 70.2048 35.3542 70.1715 35.3024 70.1518L35.2237 70.1211C34.6271 69.8878 34.2915 69.2747 34.3841 68.6669L34.3968 68.5835C34.4057 68.5288 34.4166 68.4434 34.4363 68.3399C34.4762 68.1337 34.5244 67.8088 34.6116 67.4265C34.7707 66.6362 35.0329 65.5271 35.4246 64.2159C35.8153 62.9031 36.3338 61.385 36.9966 59.7616L37.2493 59.1438L37.5205 58.5253C37.6128 58.3171 37.704 58.1018 37.8008 57.8911L38.0993 57.2572C38.4987 56.3947 38.9435 55.5308 39.4212 54.6528C40.4165 52.8305 41.5255 51.0726 42.7414 49.3895C44.0229 47.6187 45.4232 45.9371 46.9328 44.3562C47.7001 43.5535 48.4987 42.7692 49.3295 42.0144C49.7466 41.6398 50.1669 41.2644 50.5983 40.9023C51.026 40.5338 51.4649 40.1793 51.9085 39.8286C53.6837 38.4265 55.5692 37.1444 57.5309 35.9947C59.4926 34.8449 61.5322 33.8297 63.6237 32.9757C65.714 32.1195 67.8575 31.4264 70.0087 30.8888C72.161 30.3531 74.3277 29.9847 76.4568 29.7643C78.524 29.5516 80.6028 29.4731 82.6801 29.5292C83.6808 29.5571 84.6549 29.61 85.6028 29.6972C86.0782 29.7434 86.5347 29.7769 86.9948 29.8377C87.4516 29.8929 87.8924 29.9412 88.3324 30.0105C90.0763 30.2597 91.6578 30.5829 92.9972 30.9133C94.3361 31.2427 95.4325 31.5782 96.2031 31.8471C96.5804 31.9676 96.8875 32.091 97.0878 32.1626C97.188 32.1985 97.268 32.2325 97.3202 32.2531L97.3995 32.2849C97.9929 32.5232 98.3257 33.1332 98.2392 33.7392Z" fill="#ADBBBC"/>
<path d="M55.7398 57.3066L55.7604 57.5294C55.7684 57.6668 55.7761 57.8633 55.7608 58.0758C55.7407 58.5191 55.6347 59.0367 55.3496 59.4353C55.2078 59.636 55.0063 59.781 54.8033 59.9673L54.137 60.5543L52.5384 61.9607C51.906 62.5101 51.2704 63.0559 50.6316 63.598C49.9201 64.2008 49.2035 64.7978 48.4821 65.3887L47.3363 66.3164L46.1535 67.2516C45.354 67.8748 44.5386 68.5024 43.7158 69.117C42.8998 69.7304 42.0777 70.3357 41.2496 70.9329C40.432 71.5249 39.6291 72.1101 38.8448 72.6639L37.6921 73.4841C37.3127 73.7471 36.956 74.0295 36.5726 74.2421C36.1907 74.4571 35.7791 74.5968 35.3345 74.6513C34.8924 74.7102 34.4279 74.7024 33.9796 74.6911C33.1356 74.6666 32.2933 74.6011 31.4557 74.4947C31.0686 74.4457 30.7007 74.3902 30.3553 74.33C30.0113 74.272 29.6833 74.1978 29.3934 74.142C29.1019 74.0833 28.8287 74.0085 28.5979 73.9553C28.3646 73.8977 28.1576 73.8342 27.9941 73.7901C27.8281 73.7416 27.6968 73.6975 27.6103 73.6711L27.4757 73.6251L27.5032 73.4856C27.5236 73.3975 27.5511 73.2616 27.5921 73.0937C27.6356 72.9301 27.684 72.7192 27.7509 72.4882C27.8201 72.2616 27.892 71.9877 27.9869 71.7059C28.0835 71.4269 28.1833 71.1058 28.3051 70.7789C28.4255 70.4498 28.5614 70.1033 28.7126 69.7436C29.0393 68.965 29.4037 68.2028 29.8045 67.4596C30.0189 67.0659 30.2443 66.6597 30.5164 66.3062C30.786 65.9482 31.1127 65.6618 31.4898 65.4385C31.8656 65.213 32.2886 65.0453 32.7062 64.8482L33.9928 64.26C34.8646 63.8577 35.7729 63.4548 36.6943 63.0429C37.6148 62.6294 38.5547 62.2173 39.5 61.815C40.4437 61.4096 41.3949 61.0174 42.3343 60.6367L43.7356 60.0799L45.112 59.5515C45.9845 59.2222 46.8597 58.9001 47.7375 58.5853C48.5761 58.2848 49.3726 58.007 50.1089 57.7526L52.1261 57.0713L52.9677 56.7879C53.2304 56.7051 53.4567 56.6031 53.7015 56.5808C54.1893 56.5332 54.6906 56.7001 55.0844 56.9044C55.2762 56.9974 55.4425 57.1023 55.5575 57.1779L55.7398 57.3066Z" fill="#FF473E"/>
<path d="M73.277 53.0696C72.2461 56.9167 68.2918 59.1997 64.4448 58.1689C60.5977 57.1381 58.3147 53.1837 59.3455 49.3367C60.3763 45.4897 64.3307 43.2066 68.1777 44.2374C72.0247 45.2682 74.3078 49.2226 73.277 53.0696ZM80.7711 39.1067C78.3222 38.4505 75.8051 39.9037 75.1489 42.3526C74.4928 44.8015 75.946 47.3186 78.3949 47.9748C80.8438 48.6309 83.3609 47.1777 84.017 44.7288C84.6732 42.2799 83.22 39.7628 80.7711 39.1067Z" fill="#2B3B47"/>
</svg>
